<?xml version="1.0" encoding="UTF-8"?>
<svg xmlns="http://www.w3.org/2000/svg" xmlns:xlink="http://www.w3.org/1999/xlink" width="500px"
    height="500px" viewBox="0 0 500 500" version="1.1" >
    <g id="surface1" fill="#003399">
        <path style=" stroke:none;fill-rule:nonzero; fill-opacity:1;"
            d="M 244.648438 8.84375 C 172 10.390625 104.265625 44.476562 59.4375 102.082031 C 42.75 123.523438 29.710938 147.890625 21.179688 173.53125 C 13.917969 195.371094 9.96875 217.085938 9 240.472656 C 8.84375 244.265625 8.84375 255.460938 9 259.289062 C 10.75 302.085938 23.242188 342.421875 45.871094 378.371094 C 58.648438 398.671875 74.953125 417.5 93.40625 433.277344 C 121.21875 457.054688 154.09375 474.191406 189.46875 483.34375 C 225.054688 492.5625 263.164062 493.449219 299.300781 485.925781 C 337.816406 477.898438 373.875 460.453125 404.167969 435.183594 C 420.234375 421.78125 434.320312 406.578125 446.582031 389.410156 C 448.632812 386.542969 452.859375 380.195312 454.765625 377.109375 C 472.40625 348.710938 483.859375 317.273438 488.578125 284.304688 C 490.171875 273.121094 490.835938 264.132812 490.941406 252.265625 C 491.015625 244.734375 490.917969 240.652344 490.546875 234.75 C 488.84375 207.320312 482.507812 180.515625 471.816406 155.4375 C 468.085938 146.703125 463.285156 137.132812 458.523438 128.921875 C 451.289062 116.457031 442.394531 103.945312 433.085938 93.109375 C 428.5 87.769531 426.054688 85.152344 420.195312 79.296875 C 415.386719 74.5 412.796875 72.050781 408.871094 68.609375 C 381.921875 44.96875 350.355469 27.765625 315.929688 17.949219 C 293.125 11.433594 268.753906 8.328125 244.648438 8.84375 Z M 261.507812 15.585938 C 268.34375 15.984375 273.960938 16.484375 279.78125 17.21875 C 325.925781 23.0625 369.421875 42.691406 404.527344 73.5 C 411.25 79.40625 418.710938 86.785156 424.695312 93.46875 C 447.578125 118.988281 464.628906 149.308594 474.527344 182.101562 C 486.621094 222.175781 487.710938 265.515625 477.65625 306.261719 C 472.09375 328.792969 463.210938 350.304688 451.261719 370.273438 C 433.601562 399.765625 409.4375 425.25 380.902344 444.484375 C 372.085938 450.433594 364.320312 454.945312 354.4375 459.890625 C 345.304688 464.449219 337.433594 467.796875 327.835938 471.179688 C 325.085938 472.164062 320.046875 473.820312 319.84375 473.820312 C 319.773438 473.820312 319.9375 473.664062 320.191406 473.484375 C 321.429688 472.585938 322.304688 471.070312 322.542969 469.4375 C 322.9375 466.632812 321.078125 463.476562 318.511719 462.613281 C 317.265625 462.195312 315.164062 462.421875 313.570312 463.140625 C 313.125 463.34375 312.75 463.488281 312.742188 463.476562 C 312.71875 463.453125 311.40625 458.0625 309.8125 451.5 C 308.21875 444.9375 306.882812 439.445312 306.851562 439.3125 C 306.789062 439.0625 306.921875 439.011719 309.40625 438.414062 C 310.84375 438.0625 312.046875 437.765625 312.070312 437.75 C 312.175781 437.667969 311.011719 434.882812 310.855469 434.847656 C 310.710938 434.824219 280.523438 442.109375 280.4375 442.191406 C 280.390625 442.242188 281.484375 444.9375 281.59375 445.058594 C 281.640625 445.109375 283.585938 444.6875 285.914062 444.109375 C 288.238281 443.546875 290.171875 443.117188 290.207031 443.148438 C 290.253906 443.1875 290.699219 444.960938 291.214844 447.085938 C 292.089844 450.664062 292.507812 452.761719 292.378906 452.882812 C 292.355469 452.90625 292.042969 452.859375 291.683594 452.761719 C 290.734375 452.507812 288.863281 452.304688 288.203125 452.402344 L 287.648438 452.476562 L 286.847656 454.09375 L 286.042969 455.703125 L 286.5 456.109375 C 288.15625 457.585938 299.648438 467.460938 299.71875 467.460938 C 299.769531 467.460938 300.367188 466.726562 301.039062 465.828125 C 302.0625 464.460938 302.242188 464.171875 302.097656 464.039062 C 302.015625 463.945312 299.914062 462.40625 297.441406 460.621094 C 294.96875 458.835938 292.929688 457.335938 292.90625 457.285156 C 292.882812 457.203125 305.53125 454.070312 306.203125 454 C 306.488281 453.960938 306.5 454.007812 307.773438 459.21875 C 308.480469 462.109375 309.078125 464.507812 309.117188 464.546875 C 309.164062 464.578125 309.765625 464.472656 310.449219 464.292969 C 311.984375 463.90625 312.09375 463.90625 311.648438 464.242188 C 311.457031 464.390625 311.046875 464.75 310.726562 465.046875 L 310.160156 465.585938 L 311.25 466.691406 L 312.355469 467.796875 L 313.148438 467.148438 C 314.765625 465.804688 316.289062 465.359375 317.40625 465.890625 C 319.195312 466.75 319.46875 469.667969 317.886719 471.046875 C 316.304688 472.453125 313.015625 472.882812 310.015625 472.101562 C 308.671875 471.742188 307.195312 471.085938 306.070312 470.316406 L 305.265625 469.773438 L 304.796875 470.390625 C 304.53125 470.726562 304.171875 471.203125 303.992188 471.445312 L 303.65625 471.886719 L 304.617188 472.59375 C 305.742188 473.4375 307.59375 474.40625 308.839844 474.828125 C 309.859375 475.164062 311.347656 475.453125 312.71875 475.558594 C 313.234375 475.609375 313.640625 475.65625 313.617188 475.679688 C 313.59375 475.703125 312.152344 476.101562 310.398438 476.566406 C 285.109375 483.3125 258.640625 485.746094 232.109375 483.765625 C 183.480469 480.140625 137.261719 461.390625 99.71875 430.039062 C 73.335938 408.007812 52.023438 380.421875 37.519531 349.515625 C 19.929688 312.019531 12.671875 270.949219 16.269531 229.289062 C 20.21875 183.5625 37.601562 140.007812 66.265625 103.992188 C 72.265625 96.453125 77.84375 90.265625 85.082031 83.089844 C 96.179688 72.101562 107.554688 62.835938 120.464844 54.28125 C 154.046875 32.011719 192.527344 18.875 232.6875 15.957031 C 235.492188 15.753906 238.539062 15.597656 242.429688 15.429688 C 244.53125 15.34375 259.371094 15.46875 261.507812 15.585938 Z M 304.351562 445.140625 C 305.039062 447.953125 305.601562 450.328125 305.601562 450.433594 C 305.601562 450.589844 304.988281 450.78125 302.515625 451.382812 C 300.8125 451.789062 298.710938 452.304688 297.835938 452.523438 C 296.960938 452.738281 296.21875 452.882812 296.179688 452.84375 C 296.148438 452.8125 296.125 452.53125 296.125 452.234375 C 296.125 451.382812 295.859375 450.085938 294.859375 445.992188 C 294.359375 443.929688 293.976562 442.214844 294 442.191406 C 294.082031 442.109375 302.78125 439.996094 302.949219 440.019531 C 303.054688 440.03125 303.5 441.617188 304.351562 445.140625 Z M 304.351562 445.140625 " />
        <path style=" stroke:none;fill-rule:nonzero; fill-opacity:1;"
            d="M 258.445312 24.128906 C 253.492188 24.742188 250.144531 27.765625 248.859375 32.816406 C 248.464844 34.363281 248.390625 35.46875 247.996094 44.875 C 247.492188 56.992188 247.554688 58.421875 248.65625 60.976562 C 249.265625 62.382812 249.757812 63.160156 250.742188 64.203125 C 253.085938 66.699219 256.203125 67.804688 260.484375 67.632812 C 262.527344 67.5625 263.773438 67.289062 265.214844 66.601562 C 268.882812 64.875 270.890625 61.359375 271.570312 55.480469 L 271.644531 54.867188 L 269.761719 54.785156 C 268.71875 54.75 267.265625 54.679688 266.53125 54.640625 L 265.214844 54.570312 L 265.058594 55.53125 C 264.484375 59.332031 262.539062 61.429688 259.585938 61.429688 C 256.730469 61.429688 254.65625 59.539062 254.164062 56.476562 C 253.984375 55.445312 254.007812 54.75 254.40625 45.53125 C 254.871094 34.710938 254.882812 34.652344 255.710938 33.078125 C 256.960938 30.742188 259.65625 29.71875 262.261719 30.609375 C 263.59375 31.0625 264.695312 32.226562 265.285156 33.789062 C 265.5625 34.542969 265.886719 36.273438 265.886719 37.027344 C 265.886719 37.664062 265.765625 37.640625 269.125 37.734375 C 270.539062 37.773438 271.859375 37.84375 272.054688 37.878906 L 272.398438 37.9375 L 272.316406 36.460938 C 272.054688 32.070312 270.960938 29.144531 268.777344 27.023438 C 266.859375 25.160156 264.304688 24.203125 260.84375 24.070312 C 260.019531 24.03125 258.9375 24.054688 258.445312 24.128906 Z M 258.445312 24.128906 " />
        <path style=" stroke:none;fill-rule:nonzero; fill-opacity:1;"
            d="M 225.929688 25.328125 C 224.179688 25.523438 222.511719 25.976562 221.070312 26.695312 C 218.625 27.898438 217.195312 29.273438 216.09375 31.496094 C 215.132812 33.429688 214.664062 35.851562 214.820312 38.085938 C 214.964844 40.253906 216.8125 57.808594 217.003906 58.914062 C 217.4375 61.359375 218.347656 63.363281 219.859375 65.199219 C 220.960938 66.519531 223.160156 67.851562 225.09375 68.390625 C 228.007812 69.183594 232.074219 68.894531 234.941406 67.683594 C 238.359375 66.21875 240.726562 63.375 241.46875 59.8125 C 241.925781 57.640625 241.875 56.8125 240.761719 45.953125 C 240.1875 40.445312 239.644531 35.503906 239.539062 34.976562 C 238.230469 28.183594 233.15625 24.585938 225.929688 25.328125 Z M 229.46875 31.808594 C 231.320312 32.371094 232.6875 33.953125 233.179688 36.125 C 233.417969 37.171875 235.289062 55.375 235.289062 56.644531 C 235.277344 60.21875 232.867188 62.535156 229.109375 62.5625 C 226.039062 62.570312 223.890625 60.710938 223.304688 57.53125 C 223.101562 56.453125 221.25 38.3125 221.25 37.421875 C 221.25 35.984375 221.816406 34.421875 222.667969 33.460938 C 224.203125 31.75 227.023438 31.0625 229.46875 31.808594 Z M 229.46875 31.808594 " />
        <path style=" stroke:none;fill-rule:nonzero; fill-opacity:1;"
            d="M 281.84375 26.46875 C 281.84375 26.601562 275.496094 68.164062 275.421875 68.460938 C 275.375 68.703125 275.507812 68.726562 278.484375 69.171875 C 280.199219 69.421875 281.617188 69.617188 281.640625 69.578125 C 281.734375 69.484375 288.117188 27.464844 288.058594 27.40625 C 288.023438 27.367188 286.75 27.152344 285.25 26.921875 C 283.742188 26.695312 282.359375 26.480469 282.179688 26.445312 C 281.988281 26.40625 281.84375 26.421875 281.84375 26.46875 Z M 281.84375 26.46875 " />
        <path style=" stroke:none;fill-rule:nonzero; fill-opacity:1;"
            d="M 298.835938 29.40625 C 298.726562 29.71875 287.984375 70.132812 287.9375 70.359375 C 287.902344 70.550781 289.019531 70.875 298.628906 73.445312 C 304.53125 75.015625 309.382812 76.296875 309.382812 76.273438 C 309.4375 76.203125 310.882812 70.683594 310.882812 70.539062 C 310.882812 70.421875 308.734375 69.796875 303.261719 68.34375 C 297.515625 66.804688 295.640625 66.265625 295.640625 66.132812 C 295.640625 65.980469 298.628906 54.6875 298.679688 54.628906 C 298.6875 54.617188 301.640625 55.398438 305.226562 56.34375 C 308.816406 57.304688 311.804688 58.0625 311.890625 58.039062 C 312.007812 57.988281 313.59375 52.328125 313.496094 52.265625 C 313.472656 52.242188 310.546875 51.460938 306.980469 50.515625 C 303.417969 49.566406 300.441406 48.761719 300.367188 48.726562 C 300.285156 48.679688 300.742188 46.757812 301.710938 43.132812 C 302.53125 40.101562 303.25 37.421875 303.308594 37.183594 L 303.441406 36.75 L 311.011719 38.78125 C 315.175781 39.882812 318.640625 40.796875 318.726562 40.796875 C 318.859375 40.796875 320.429688 35.070312 320.320312 34.960938 C 320.273438 34.90625 299.828125 29.429688 299.21875 29.3125 C 298.992188 29.265625 298.867188 29.300781 298.835938 29.40625 Z M 298.835938 29.40625 " />
        <path style=" stroke:none;fill-rule:nonzero; fill-opacity:1;"
            d="M 192.875 31.4375 C 189.816406 32.046875 186.757812 33.535156 185.039062 35.25 C 182.316406 37.976562 181.632812 41.296875 182.832031 45.976562 C 183.851562 49.914062 185.015625 51.835938 187.332031 53.417969 C 189.226562 54.710938 191.316406 55.15625 196.640625 55.433594 C 200.699219 55.636719 202.054688 55.898438 203.375 56.75 C 204.417969 57.421875 204.835938 58.15625 205.460938 60.449219 C 206 62.429688 206.085938 63.148438 205.894531 63.960938 C 205.460938 65.835938 204.046875 67.132812 201.574219 67.921875 C 198.828125 68.8125 196.632812 68.390625 194.914062 66.652344 C 194.519531 66.242188 194.015625 65.585938 193.796875 65.175781 C 193.585938 64.765625 193.355469 64.429688 193.296875 64.429688 C 193.210938 64.429688 188.21875 67.394531 187.90625 67.625 C 187.824219 67.683594 188.496094 69.003906 189.035156 69.84375 C 190.476562 72.074219 192.757812 73.707031 195.335938 74.34375 C 196.714844 74.691406 199.773438 74.664062 201.441406 74.296875 C 209.328125 72.53125 213.234375 67.898438 212.203125 61.554688 C 211.988281 60.21875 211.136719 57.085938 210.679688 55.925781 C 209.972656 54.148438 208.75 52.53125 207.429688 51.617188 C 205.367188 50.203125 203.601562 49.804688 197.671875 49.433594 C 193.609375 49.179688 192.71875 49.015625 191.363281 48.28125 C 190.679688 47.910156 189.9375 47.15625 189.601562 46.46875 C 189.46875 46.21875 189.191406 45.367188 188.976562 44.585938 C 188.304688 42.089844 188.542969 40.734375 189.875 39.390625 C 190.824219 38.453125 192.707031 37.601562 194.328125 37.375 C 195.609375 37.207031 197.109375 37.722656 198.203125 38.707031 C 198.730469 39.1875 199.882812 40.734375 200.039062 41.179688 C 200.109375 41.371094 200.171875 41.347656 203.171875 39.4375 L 205.414062 38.011719 L 204.851562 36.929688 C 203.328125 34.050781 200.976562 32.09375 198.214844 31.4375 C 196.882812 31.125 194.4375 31.125 192.875 31.4375 Z M 192.875 31.4375 " />
        <path style=" stroke:none;fill-rule:nonzero; fill-opacity:1;"
            d="M 326.203125 40.207031 C 325.566406 41.742188 325.050781 43 325.0625 43.015625 C 325.085938 43.027344 326.984375 43.828125 329.273438 44.8125 C 332.597656 46.21875 333.449219 46.625 333.398438 46.78125 C 333.375 46.890625 330.171875 54.425781 326.296875 63.53125 C 322.421875 72.640625 319.242188 80.164062 319.230469 80.257812 C 319.21875 80.367188 320.226562 80.859375 322.101562 81.648438 C 323.679688 82.320312 324.992188 82.875 325 82.859375 C 325.015625 82.859375 328.132812 75.53125 331.9375 66.59375 C 335.742188 57.652344 338.96875 50.082031 339.101562 49.757812 C 339.234375 49.445312 339.398438 49.195312 339.460938 49.195312 C 339.53125 49.195312 341.414062 49.972656 343.671875 50.933594 C 345.914062 51.890625 347.796875 52.636719 347.847656 52.589844 C 347.953125 52.46875 350.257812 47.132812 350.210938 47.09375 C 350.125 47.03125 327.714844 37.519531 327.558594 37.46875 C 327.425781 37.445312 327.078125 38.140625 326.203125 40.207031 Z M 326.203125 40.207031 " />
        <path style=" stroke:none;fill-rule:nonzero; fill-opacity:1;"
            d="M 147.582031 49.851562 C 146.273438 50.140625 145.074219 50.609375 143.441406 51.472656 C 140.296875 53.128906 132.078125 57.664062 132.078125 57.757812 C 132.078125 57.832031 152.175781 94.617188 152.488281 95.125 C 152.546875 95.234375 153.304688 94.871094 155.34375 93.757812 L 158.101562 92.242188 L 157.828125 91.742188 C 154.289062 85.359375 149.515625 76.492188 149.585938 76.417969 C 149.859375 76.15625 154.203125 73.898438 154.324219 73.945312 C 154.40625 73.984375 156.832031 75.984375 159.699219 78.410156 C 162.566406 80.835938 165.84375 83.59375 166.96875 84.539062 L 169.035156 86.269531 L 172.164062 84.5625 C 173.882812 83.617188 175.296875 82.828125 175.285156 82.789062 C 175.285156 82.753906 172.367188 80.375 168.804688 77.507812 C 165.230469 74.640625 161.679688 71.773438 160.898438 71.140625 L 159.484375 70 L 160.117188 69.050781 C 161.355469 67.214844 161.824219 65.5 161.703125 63.289062 C 161.617188 61.898438 161.378906 60.785156 160.863281 59.523438 C 160.453125 58.539062 158.882812 55.648438 158.078125 54.414062 C 156.652344 52.21875 154.921875 50.828125 152.621094 50.03125 C 151.601562 49.6875 148.78125 49.589844 147.582031 49.851562 Z M 149.921875 56.09375 C 150.859375 56.34375 151.769531 56.957031 152.414062 57.773438 C 153.085938 58.636719 154.734375 61.695312 155.046875 62.65625 C 155.355469 63.664062 155.296875 64.71875 154.851562 65.65625 C 154.3125 66.796875 153.601562 67.324219 149.90625 69.339844 C 148.070312 70.335938 146.570312 71.140625 146.5625 71.117188 C 146.285156 70.804688 140.523438 60.039062 140.585938 59.980469 C 140.648438 59.929688 142.148438 59.09375 143.921875 58.121094 C 146.957031 56.453125 148.121094 55.949219 148.960938 55.925781 C 149.105469 55.914062 149.539062 55.996094 149.921875 56.09375 Z M 149.921875 56.09375 " />
        <path style=" stroke:none;fill-rule:nonzero; fill-opacity:1;"
            d="M 354.363281 63.808594 L 352.058594 77.328125 L 347.59375 84.648438 C 345.136719 88.667969 343.109375 91.992188 343.09375 92.027344 C 343.046875 92.101562 348.148438 95.21875 348.398438 95.289062 C 348.484375 95.316406 350.4375 92.234375 353.03125 87.984375 L 357.515625 80.628906 L 368.1875 72.519531 C 374.054688 68.066406 378.945312 64.324219 379.054688 64.214844 C 379.25 64.023438 379.078125 63.90625 376.429688 62.296875 C 374.570312 61.167969 373.5625 60.617188 373.476562 60.6875 C 373.390625 60.75 370.023438 63.507812 365.976562 66.820312 C 361.921875 70.140625 358.585938 72.820312 358.550781 72.78125 C 358.515625 72.746094 359.351562 68.453125 360.421875 63.21875 C 361.492188 58 362.351562 53.71875 362.328125 53.703125 C 362.148438 53.585938 356.703125 50.273438 356.679688 50.273438 C 356.664062 50.273438 355.625 56.359375 354.363281 63.808594 Z M 354.363281 63.808594 " />
        <path style=" stroke:none;fill-rule:nonzero; fill-opacity:1;"
            d="M 114.105469 70.5625 C 109.320312 74.269531 105.417969 77.34375 105.429688 77.402344 C 105.453125 77.460938 111.3125 85.082031 118.4375 94.332031 C 125.578125 103.59375 131.429688 111.179688 131.445312 111.203125 C 131.492188 111.261719 149.078125 97.667969 149.054688 97.59375 C 149.046875 97.558594 148.21875 96.453125 147.195312 95.148438 C 145.613281 93.070312 145.351562 92.78125 145.179688 92.914062 C 144.808594 93.242188 132.8125 102.46875 132.765625 102.46875 C 132.703125 102.46875 125.515625 93.15625 125.480469 93.011719 C 125.453125 92.953125 127.867188 91.03125 130.820312 88.75 C 133.773438 86.472656 136.195312 84.5625 136.195312 84.53125 C 136.207031 84.410156 132.65625 79.804688 132.546875 79.789062 C 132.5 79.789062 130.039062 81.648438 127.085938 83.929688 C 124.136719 86.210938 121.6875 88.054688 121.640625 88.03125 C 121.53125 87.996094 114.082031 78.335938 114.128906 78.289062 C 114.15625 78.277344 116.925781 76.140625 120.285156 73.550781 C 123.65625 70.960938 126.460938 68.773438 126.546875 68.703125 C 126.65625 68.609375 126.28125 68.03125 124.890625 66.234375 C 123.90625 64.945312 123.03125 63.878906 122.949219 63.867188 C 122.867188 63.855469 118.890625 66.867188 114.105469 70.5625 Z M 114.105469 70.5625 " />
        <path style=" stroke:none;fill-rule:nonzero; fill-opacity:1;"
            d="M 243.148438 78 C 213.054688 79.320312 184.152344 88.332031 158.742188 104.304688 C 142.21875 114.679688 127.59375 127.75 115.398438 143 C 102.5625 159.0625 92.652344 177.351562 86.234375 196.835938 C 76.007812 227.851562 74.796875 261.664062 82.789062 293.484375 C 89.710938 321.078125 103.476562 346.660156 122.828125 367.882812 C 144.917969 392.109375 173.546875 409.640625 205.089844 418.253906 C 229 424.78125 254.523438 426.089844 279.203125 422.03125 C 319.207031 415.46875 355.835938 394.808594 382.367188 363.851562 C 394.425781 349.78125 404.121094 333.964844 411.140625 316.890625 C 417.84375 300.621094 422.023438 283.199219 423.476562 265.523438 C 423.90625 260.304688 423.964844 258.554688 423.964844 250.890625 C 423.953125 243.007812 423.867188 240.890625 423.351562 235.289062 C 420.222656 201.140625 407.371094 169.335938 385.90625 142.601562 C 381.765625 137.429688 378.683594 134.023438 373.332031 128.671875 C 367.835938 123.164062 364.585938 120.234375 359.113281 115.84375 C 331.46875 93.660156 297.898438 80.59375 262.527344 78.230469 C 257.148438 77.867188 248.414062 77.773438 243.148438 78 Z M 220.375 121.808594 C 222.75 122.648438 224.527344 124.640625 225.03125 127.039062 C 225.296875 128.273438 225.296875 220.421875 225.03125 221.671875 C 224.601562 223.722656 223.078125 225.691406 221.25 226.566406 C 219.40625 227.445312 223.6875 227.382812 171.757812 227.347656 C 126.59375 227.3125 125.0625 227.296875 124.421875 227.082031 C 123.140625 226.648438 122.347656 226.15625 121.414062 225.222656 C 118.964844 222.773438 118.578125 219.101562 120.464844 216.308594 C 120.90625 215.636719 131.984375 204.5 167.460938 169.046875 C 213.226562 123.296875 213.882812 122.648438 214.773438 122.21875 C 216.140625 121.570312 216.800781 121.421875 218.25 121.460938 C 219.210938 121.496094 219.71875 121.578125 220.375 121.808594 Z M 339.21875 121.554688 C 339.570312 121.628906 340.3125 121.90625 340.875 122.167969 C 342.710938 123.046875 344.128906 124.78125 344.644531 126.789062 C 344.8125 127.445312 344.835938 132.1875 344.835938 174.3125 C 344.835938 207.632812 344.800781 221.296875 344.703125 221.757812 C 344.476562 222.882812 343.71875 224.273438 342.882812 225.117188 C 340.347656 227.648438 336.523438 228.054688 333.726562 226.0625 C 332.539062 225.222656 240.628906 133.242188 240.039062 132.320312 C 238.71875 130.21875 238.613281 127.640625 239.753906 125.273438 C 240.03125 124.710938 240.425781 124.195312 241.109375 123.523438 C 242.1875 122.429688 242.921875 122 244.195312 121.664062 C 245.046875 121.449219 246.160156 121.4375 291.828125 121.4375 C 325.132812 121.421875 338.765625 121.460938 339.21875 121.554688 Z M 219.75 234.632812 C 222.125 235.242188 223.976562 236.933594 224.828125 239.25 L 225.148438 240.148438 L 225.1875 286.976562 C 225.210938 328.121094 225.1875 333.90625 225.03125 334.671875 C 224.445312 337.492188 222.140625 339.703125 219.210938 340.226562 C 217.699219 340.492188 216.453125 340.3125 214.890625 339.59375 C 213.992188 339.171875 213.847656 339.03125 167.367188 292.558594 C 134.625 259.828125 120.621094 245.75 120.34375 245.296875 C 120.128906 244.9375 119.816406 244.277344 119.648438 243.832031 C 119.382812 243.136719 119.335938 242.851562 119.335938 241.589844 C 119.335938 240.257812 119.375 240.0625 119.71875 239.128906 C 120.390625 237.367188 121.617188 235.984375 123.25 235.15625 C 124.710938 234.414062 121.078125 234.476562 172.179688 234.460938 C 213.992188 234.449219 219.117188 234.476562 219.75 234.632812 Z M 339.375 234.632812 C 341.96875 235.289062 344.03125 237.304688 344.65625 239.789062 C 344.8125 240.4375 344.835938 245.777344 344.8125 287.664062 L 344.773438 334.816406 L 344.5 335.5625 C 343.578125 338.007812 341.464844 339.785156 338.957031 340.226562 C 338.070312 340.375 331.820312 340.398438 291.382812 340.375 L 244.828125 340.335938 L 243.859375 340.011719 C 242.164062 339.4375 240.554688 338.070312 239.789062 336.554688 C 239.429688 335.851562 239.046875 334.515625 238.949219 333.679688 C 238.851562 332.695312 239.164062 331.148438 239.679688 330.078125 C 240.113281 329.1875 240.84375 328.445312 286.929688 282.371094 C 330.761719 238.53125 333.785156 235.53125 334.515625 235.179688 C 334.949219 234.976562 335.597656 234.738281 335.957031 234.640625 C 336.832031 234.414062 338.488281 234.402344 339.375 234.632812 Z M 200.335938 355.226562 C 203.242188 355.960938 204.859375 358.03125 205.234375 361.476562 L 205.320312 362.234375 L 200.757812 362.234375 L 200.617188 361.417969 C 200.28125 359.484375 199.4375 358.632812 197.878906 358.632812 C 196.273438 358.632812 195.335938 359.6875 195.335938 361.515625 C 195.335938 362.582031 195.527344 363.046875 196.273438 363.792969 C 196.835938 364.34375 197.328125 364.65625 199.054688 365.523438 C 202.4375 367.226562 203.792969 368.257812 204.753906 369.851562 C 205.402344 370.929688 205.664062 371.914062 205.738281 373.511719 C 205.917969 377.421875 204.046875 380.132812 200.507812 381.09375 C 199.28125 381.429688 196.632812 381.453125 195.40625 381.15625 C 193.640625 380.710938 192.15625 379.691406 191.289062 378.347656 C 190.75 377.496094 190.1875 375.765625 190.09375 374.664062 L 190.019531 373.75 L 194.578125 373.75 L 194.773438 374.6875 C 195.191406 376.632812 196.175781 377.617188 197.78125 377.6875 C 198.886719 377.75 199.558594 377.570312 200.132812 377.039062 C 200.78125 376.453125 201.035156 375.734375 201.035156 374.472656 C 201.035156 372.300781 200.179688 371.339844 196.738281 369.585938 C 194.46875 368.449219 193.390625 367.71875 192.453125 366.710938 C 191.234375 365.398438 190.742188 364.023438 190.742188 361.875 C 190.742188 358.140625 192.898438 355.625 196.59375 355.035156 C 197.507812 354.902344 199.4375 354.984375 200.335938 355.226562 Z M 187.535156 357.433594 L 187.535156 359.476562 L 178.898438 359.476562 L 178.898438 365.59375 L 187.175781 365.59375 L 187.152344 367.597656 L 187.117188 369.613281 L 183.011719 369.648438 L 178.898438 369.671875 L 178.898438 376.992188 L 188.171875 376.992188 L 188.101562 377.375 C 188.078125 377.59375 187.945312 378.492188 187.824219 379.355469 L 187.609375 380.953125 L 174.335938 380.953125 L 174.335938 355.394531 L 187.535156 355.394531 Z M 222.570312 357.433594 L 222.570312 359.476562 L 217.171875 359.476562 L 217.171875 380.953125 L 212.492188 380.953125 L 212.492188 359.476562 L 209.769531 359.449219 L 207.03125 359.414062 L 207 357.398438 L 206.972656 355.394531 L 222.570312 355.394531 Z M 234.632812 355.679688 C 236.5625 356.246094 238.179688 357.460938 239.117188 359.03125 C 239.632812 359.90625 240.257812 361.742188 240.523438 363.132812 C 240.820312 364.777344 240.890625 369.636719 240.640625 371.59375 C 239.945312 376.835938 238.109375 379.5 234.449219 380.601562 C 233.609375 380.855469 233.289062 380.878906 229.265625 380.929688 L 224.96875 380.976562 L 224.96875 355.382812 L 229.445312 355.429688 C 233.238281 355.46875 234.015625 355.5 234.632812 355.679688 Z M 283.609375 356.042969 C 286.164062 356.738281 287.617188 358.679688 288.273438 362.292969 C 288.695312 364.585938 288.625 370.464844 288.132812 373.726562 C 287.351562 379.03125 285.203125 381.3125 280.992188 381.3125 C 277.570312 381.3125 275.449219 379.835938 274.703125 376.929688 C 274.609375 376.546875 274.523438 376.019531 274.523438 375.765625 L 274.523438 375.3125 L 278.785156 375.3125 L 278.988281 376.019531 C 279.242188 376.847656 279.734375 377.414062 280.382812 377.59375 C 280.992188 377.757812 281.414062 377.75 281.90625 377.542969 C 283.199219 377.003906 283.847656 375.15625 283.96875 371.75 L 284.039062 369.921875 L 283.488281 370.441406 C 282.480469 371.414062 280.71875 371.796875 278.964844 371.421875 C 276.179688 370.835938 274.65625 368.859375 274.273438 365.34375 C 274.128906 364.046875 274.261719 362.21875 274.585938 360.976562 C 275.28125 358.296875 277.117188 356.453125 279.625 355.933594 C 280.617188 355.730469 282.671875 355.78125 283.609375 356.042969 Z M 301.367188 356.089844 C 301.773438 356.222656 302.351562 356.460938 302.625 356.632812 C 303.273438 357 304.292969 358.082031 304.628906 358.71875 C 304.941406 359.34375 305.359375 360.851562 305.359375 361.359375 L 305.359375 361.753906 L 301.164062 361.753906 L 301.089844 361.417969 C 300.851562 360.289062 300.1875 359.546875 299.300781 359.414062 C 297.15625 359.089844 296.195312 360.695312 295.941406 365.054688 L 295.859375 366.375 L 296.304688 365.867188 C 297.621094 364.335938 300.464844 363.949219 302.578125 365.007812 C 304.6875 366.0625 305.84375 368.640625 305.84375 372.3125 C 305.828125 378.347656 303.117188 381.515625 298.164062 381.273438 C 296.171875 381.179688 294.984375 380.664062 293.804688 379.40625 C 292.679688 378.179688 291.96875 376.332031 291.625 373.667969 C 291.40625 372.0625 291.382812 367.117188 291.5625 365.21875 C 292.140625 359.390625 294 356.535156 297.65625 355.875 C 298.53125 355.707031 300.515625 355.828125 301.367188 356.089844 Z M 270.804688 368.472656 L 270.804688 380.953125 L 266.246094 380.953125 L 266.246094 361.335938 L 263.546875 361.335938 L 263.546875 357.867188 L 264.328125 357.710938 C 265.179688 357.542969 267.148438 356.632812 267.492188 356.246094 C 267.695312 356.015625 267.867188 355.992188 269.269531 355.992188 L 270.804688 355.992188 Z M 321.859375 356.5 C 321.789062 356.953125 321.4375 359.714844 321.4375 359.859375 C 321.4375 359.90625 319.710938 359.953125 317.601562 359.953125 L 313.757812 359.953125 L 313.710938 360.21875 C 313.6875 360.375 313.570312 361.382812 313.460938 362.472656 C 313.351562 363.566406 313.234375 364.671875 313.195312 364.933594 C 313.125 365.398438 313.136719 365.398438 313.351562 365.21875 C 314.046875 364.621094 315.25 364.273438 316.640625 364.273438 C 318.402344 364.273438 319.648438 364.753906 320.730469 365.835938 C 321.511719 366.601562 322.039062 367.5625 322.421875 368.914062 C 322.671875 369.757812 322.699219 370.117188 322.699219 372.25 C 322.699219 374.339844 322.664062 374.796875 322.421875 375.734375 C 321.511719 379.355469 319.363281 381.117188 315.679688 381.273438 C 311.375 381.453125 308.792969 379.296875 308.300781 375.09375 L 308.21875 374.351562 L 312.800781 374.351562 L 312.800781 374.6875 C 312.800781 375.242188 313.101562 376.234375 313.414062 376.679688 C 313.84375 377.328125 314.503906 377.640625 315.40625 377.625 C 316.867188 377.617188 317.648438 376.773438 317.96875 374.914062 C 318.125 373.945312 318.054688 370.429688 317.851562 369.78125 C 317.683594 369.21875 317.265625 368.617188 316.84375 368.304688 C 316.4375 368.007812 314.914062 367.882812 314.371094 368.113281 C 313.84375 368.328125 313.289062 368.964844 312.980469 369.742188 C 312.703125 370.429688 312.679688 370.453125 312.296875 370.414062 C 311.5625 370.34375 308.671875 369.914062 308.625 369.867188 C 308.601562 369.839844 308.695312 368.929688 308.828125 367.851562 C 309.128906 365.523438 309.609375 360.640625 309.8125 358 L 309.96875 356.117188 L 321.929688 356.117188 Z M 247.742188 378.035156 L 247.765625 380.953125 L 243.089844 380.953125 L 243.089844 375.070312 L 245.40625 375.09375 L 247.710938 375.132812 Z M 247.742188 378.035156 " />
        <path style=" stroke:none;fill-rule:nonzero; fill-opacity:1;"
            d="M 229.648438 368.21875 L 229.648438 377.234375 L 230.527344 377.234375 C 231.65625 377.234375 232.804688 377.039062 233.359375 376.765625 C 234.460938 376.1875 235.265625 374.867188 235.664062 372.996094 C 236.15625 370.609375 236.179688 365.164062 235.695312 363.0625 C 235.289062 361.25 234.523438 360.109375 233.335938 359.582031 C 232.820312 359.351562 232.460938 359.296875 231.1875 359.257812 L 229.648438 359.210938 Z M 229.648438 368.21875 " />
        <path style=" stroke:none;fill-rule:nonzero; fill-opacity:1;"
            d="M 280.28125 359.738281 C 279.984375 359.894531 279.625 360.195312 279.46875 360.421875 C 278.398438 362.039062 278.546875 365.988281 279.71875 367.25 C 280.152344 367.71875 280.632812 367.898438 281.4375 367.898438 C 282.515625 367.898438 283.101562 367.546875 283.585938 366.625 C 283.945312 365.917969 283.945312 365.90625 283.945312 363.867188 C 283.945312 361.695312 283.847656 361.140625 283.367188 360.421875 C 283.007812 359.867188 282.191406 359.476562 281.421875 359.476562 C 281.027344 359.476562 280.617188 359.570312 280.28125 359.738281 Z M 280.28125 359.738281 " />
        <path style=" stroke:none;fill-rule:nonzero; fill-opacity:1;"
            d="M 297.5 368.34375 C 296.410156 368.84375 295.992188 369.742188 295.90625 371.773438 C 295.761719 375.601562 296.710938 377.710938 298.59375 377.710938 C 299.46875 377.710938 300.140625 377.328125 300.5625 376.585938 C 301.148438 375.5625 301.320312 374.507812 301.257812 372.273438 C 301.195312 370.234375 301.078125 369.671875 300.546875 368.929688 C 300 368.160156 298.507812 367.875 297.5 368.34375 Z M 297.5 368.34375 " />
        <path style=" stroke:none;fill-rule:nonzero; fill-opacity:1;"
            d="M 396.515625 82.96875 C 394.738281 83.304688 392.9375 84.171875 391.164062 85.523438 C 390.15625 86.292969 376.570312 100.378906 375.347656 101.929688 C 374.507812 102.984375 373.285156 105.335938 372.972656 106.484375 C 372.851562 106.90625 372.742188 107.902344 372.710938 108.886719 C 372.660156 110.328125 372.683594 110.722656 372.898438 111.632812 C 373.414062 113.78125 374.53125 115.773438 376.234375 117.585938 C 379.175781 120.71875 382.667969 122.300781 386.171875 122.109375 C 389.207031 121.9375 391.917969 120.585938 394.570312 117.898438 C 398.226562 114.179688 408.234375 103.617188 408.824219 102.851562 C 409.699219 101.699219 410.757812 99.585938 411.09375 98.328125 C 411.453125 96.945312 411.453125 94.40625 411.078125 93.046875 C 409.890625 88.667969 405.4375 84.277344 401.046875 83.136719 C 399.777344 82.8125 397.75 82.742188 396.515625 82.96875 Z M 399.898438 89.570312 C 401.023438 89.867188 401.839844 90.359375 402.859375 91.367188 C 405.128906 93.625 405.4375 96.265625 403.75 98.773438 C 403.316406 99.421875 395.769531 107.410156 390.15625 113.171875 C 388.101562 115.28125 385.992188 115.988281 383.796875 115.304688 C 381.609375 114.632812 379.609375 112.34375 379.257812 110.121094 C 379.019531 108.597656 379.640625 106.796875 380.929688 105.335938 C 382.332031 103.714844 394.628906 90.984375 395.132812 90.636719 C 396.671875 89.53125 398.359375 89.160156 399.898438 89.570312 Z M 399.898438 89.570312 " />
        <path style=" stroke:none;fill-rule:nonzero; fill-opacity:1;"
            d="M 91.476562 90.492188 C 87.734375 94.34375 83.84375 98.3125 82.859375 99.324219 L 81.0625 101.148438 L 82.789062 102.898438 C 83.75 103.859375 84.746094 104.804688 85 105.023438 L 85.464844 105.394531 L 91.847656 98.84375 L 104.976562 111.648438 L 118.101562 124.445312 L 120.308594 122.242188 C 121.507812 121.03125 122.503906 119.984375 122.503906 119.914062 C 122.503906 119.851562 116.625 114.082031 109.4375 107.085938 C 102.25 100.09375 96.359375 94.332031 96.359375 94.296875 C 96.347656 94.257812 97.789062 92.75 99.550781 90.949219 L 102.753906 87.671875 L 100.59375 85.597656 C 99.421875 84.457031 98.414062 83.523438 98.363281 83.507812 C 98.328125 83.507812 95.21875 86.652344 91.476562 90.492188 Z M 91.476562 90.492188 " />
        <path style=" stroke:none;fill-rule:nonzero; fill-opacity:1;"
            d="M 408.546875 115.679688 C 400.53125 121.882812 392.925781 127.757812 391.65625 128.734375 L 389.351562 130.519531 L 391.234375 132.992188 C 392.277344 134.347656 393.164062 135.453125 393.226562 135.460938 C 393.273438 135.460938 396.453125 133.039062 400.292969 130.078125 C 404.132812 127.101562 407.3125 124.699219 407.359375 124.734375 C 407.40625 124.757812 409.265625 127.148438 411.5 130.039062 C 413.71875 132.921875 415.554688 135.304688 415.578125 135.328125 C 415.601562 135.355469 416.65625 134.5625 417.917969 133.59375 C 419.1875 132.609375 420.28125 131.765625 420.34375 131.730469 C 420.402344 131.683594 418.589844 129.234375 416.3125 126.28125 L 412.160156 120.921875 L 412.722656 120.476562 C 414.871094 118.785156 422.214844 113.148438 422.261719 113.148438 C 422.296875 113.148438 424.46875 115.929688 427.097656 119.324219 C 429.726562 122.71875 431.90625 125.492188 431.957031 125.480469 C 432.003906 125.453125 433.09375 124.628906 434.382812 123.632812 L 436.734375 121.820312 L 430.023438 113.132812 C 426.328125 108.359375 423.269531 104.4375 423.222656 104.421875 C 423.171875 104.410156 416.5625 109.476562 408.546875 115.679688 Z M 408.546875 115.679688 " />
        <path style=" stroke:none;fill-rule:nonzero; fill-opacity:1;"
            d="M 74.34375 109.449219 C 73.371094 110.78125 72.542969 111.933594 72.507812 112.007812 C 72.484375 112.089844 78.109375 116.277344 85.09375 121.375 C 92.171875 126.546875 98.039062 130.929688 98.460938 131.335938 C 100.738281 133.601562 100.714844 136.554688 98.375 139.109375 C 97.992188 139.53125 97.414062 140.03125 97.101562 140.238281 C 95.570312 141.210938 93.707031 141.210938 91.882812 140.238281 C 91.5 140.03125 85.476562 135.691406 78.507812 130.59375 C 71.523438 125.480469 65.773438 121.316406 65.726562 121.339844 C 65.617188 121.367188 62.03125 126.25 62.03125 126.355469 C 62.03125 126.511719 87.660156 145.15625 88.679688 145.746094 C 90.71875 146.910156 92.699219 147.472656 94.789062 147.472656 C 96.683594 147.472656 97.691406 147.21875 99.347656 146.367188 C 101.984375 145.015625 104.664062 141.882812 105.921875 138.6875 C 106.929688 136.15625 106.917969 133.183594 105.886719 130.84375 C 105.15625 129.1875 103.570312 127.195312 101.953125 125.898438 C 101.050781 125.167969 76.382812 107.109375 76.214844 107.050781 C 76.164062 107.039062 75.3125 108.117188 74.34375 109.449219 Z M 74.34375 109.449219 " />
        <path style=" stroke:none;fill-rule:nonzero; fill-opacity:1;"
            d="M 58.492188 139.023438 C 57.496094 139.230469 56.210938 139.804688 55.242188 140.476562 C 54.304688 141.113281 52.960938 142.515625 52.289062 143.5625 C 51.738281 144.414062 45.351562 156.699219 45.351562 156.890625 C 45.367188 156.976562 82.800781 176.320312 83.234375 176.460938 C 83.390625 176.523438 86.195312 170.976562 86.078125 170.871094 C 86.015625 170.8125 82.71875 169.105469 78.746094 167.066406 C 74.761719 165.027344 71.523438 163.296875 71.546875 163.238281 C 71.558594 163.167969 72.386719 161.523438 73.394531 159.570312 C 75.3125 155.824219 75.84375 154.527344 76.082031 152.875 C 76.25 151.710938 76.164062 149.882812 75.902344 148.914062 C 75.289062 146.65625 73.730469 144.640625 71.367188 143.046875 C 70.492188 142.445312 65.523438 139.9375 64.453125 139.542969 C 62.523438 138.835938 60.265625 138.640625 58.492188 139.023438 Z M 62.570312 145.78125 C 62.96875 145.9375 64.289062 146.570312 65.511719 147.210938 C 67.347656 148.15625 67.851562 148.480469 68.453125 149.078125 C 69.410156 150.03125 69.75 150.734375 69.804688 151.898438 C 69.855469 153.085938 69.757812 153.339844 67.730469 157.273438 L 66.0625 160.515625 L 65.332031 160.15625 C 63.90625 159.4375 53.695312 154.15625 53.644531 154.121094 C 53.585938 154.046875 56.859375 147.710938 57.269531 147.113281 C 57.703125 146.476562 58.480469 145.914062 59.308594 145.625 C 60.148438 145.351562 61.585938 145.421875 62.570312 145.78125 Z M 62.570312 145.78125 " />
        <path style=" stroke:none;fill-rule:nonzero; fill-opacity:1;"
            d="M 430.144531 152.320312 C 419.753906 157.742188 411.25 162.230469 411.222656 162.289062 C 411.164062 162.507812 414.054688 167.796875 414.210938 167.761719 C 414.378906 167.714844 451.238281 148.515625 451.71875 148.21875 L 451.992188 148.046875 L 450.757812 145.6875 C 450.085938 144.390625 449.425781 143.128906 449.28125 142.890625 L 449.042969 142.457031 Z M 430.144531 152.320312 " />
        <path style=" stroke:none;fill-rule:nonzero; fill-opacity:1;"
            d="M 437.054688 165.640625 C 426.101562 169.765625 417.140625 173.148438 417.117188 173.164062 C 417.066406 173.210938 419.105469 178.585938 419.203125 178.679688 C 419.25 178.726562 425.390625 176.484375 432.84375 173.679688 C 440.308594 170.871094 446.4375 168.589844 446.476562 168.617188 C 446.523438 168.625 441.46875 173.785156 435.265625 180.070312 L 423.992188 191.507812 L 424.984375 194.171875 C 425.523438 195.632812 426.007812 196.871094 426.054688 196.917969 C 426.148438 197.027344 465.9375 182.085938 465.996094 181.921875 C 466.03125 181.800781 464.125 176.617188 463.980469 176.460938 C 463.929688 176.402344 457.765625 178.671875 450.289062 181.476562 C 442.804688 184.296875 436.46875 186.671875 436.203125 186.765625 C 435.808594 186.914062 437.667969 184.992188 447.445312 175.238281 L 459.171875 163.527344 L 458.164062 160.863281 C 457.621094 159.414062 457.117188 158.199219 457.070312 158.175781 C 457.007812 158.164062 448 161.523438 437.054688 165.640625 Z M 437.054688 165.640625 " />
        <path style=" stroke:none;fill-rule:nonzero; fill-opacity:1;"
            d="M 38.992188 172.25 C 38.265625 174.695312 38.140625 175.226562 38.289062 175.308594 C 38.671875 175.523438 60.773438 191.878906 60.808594 191.953125 C 60.820312 192 54.507812 192.3125 46.769531 192.625 C 39.03125 192.945312 32.683594 193.222656 32.660156 193.234375 C 32.601562 193.28125 30.824219 199.199219 30.859375 199.234375 C 30.929688 199.296875 71.429688 211.570312 71.609375 211.578125 C 71.75 211.59375 72 210.921875 72.601562 208.953125 C 73.046875 207.5 73.417969 206.230469 73.417969 206.121094 C 73.429688 205.976562 72.828125 205.75 70.886719 205.148438 C 69.484375 204.730469 63.542969 202.917969 57.6875 201.15625 C 51.835938 199.378906 47.070312 197.902344 47.09375 197.878906 C 47.117188 197.855469 52.144531 197.589844 58.265625 197.304688 C 64.382812 197 69.410156 196.75 69.4375 196.738281 C 69.554688 196.609375 70.632812 192.742188 70.5625 192.695312 C 69.832031 192.203125 51.859375 179.078125 51.882812 179.054688 C 51.890625 179.03125 58.039062 180.875 65.523438 183.144531 C 73 185.421875 79.140625 187.257812 79.164062 187.234375 C 79.238281 187.175781 80.867188 181.726562 80.835938 181.695312 C 80.785156 181.644531 40.085938 169.296875 39.976562 169.296875 C 39.929688 169.296875 39.484375 170.632812 38.992188 172.25 Z M 38.992188 172.25 " />
        <path style=" stroke:none;fill-rule:nonzero; fill-opacity:1;"
            d="M 448.296875 198.679688 C 436.9375 200.902344 427.613281 202.75 427.578125 202.785156 C 427.46875 202.894531 429.988281 215.625 430.335938 216.71875 C 431.046875 218.960938 432.015625 220.601562 433.480469 221.984375 C 435.546875 223.953125 437.8125 224.71875 441.125 224.578125 C 442.492188 224.515625 443.921875 224.265625 452.882812 222.523438 C 458.5 221.421875 463.570312 220.390625 464.160156 220.21875 C 468.226562 219.070312 470.84375 216.59375 471.789062 213.023438 C 472.101562 211.820312 472.222656 209.335938 472.03125 207.933594 C 471.921875 207.09375 469.765625 195.78125 469.535156 194.878906 C 469.5 194.699219 469.390625 194.617188 469.210938 194.625 C 469.078125 194.640625 459.664062 196.453125 448.296875 198.679688 Z M 465.335938 204.933594 C 466.273438 209.589844 466.175781 211.03125 464.859375 212.492188 C 464.269531 213.140625 463.609375 213.585938 462.671875 213.929688 C 462.359375 214.0625 457.492188 215.0625 451.851562 216.152344 C 442.296875 218.023438 441.53125 218.15625 440.523438 218.109375 C 439.117188 218.046875 438.207031 217.652344 437.34375 216.742188 C 436.347656 215.683594 436.070312 214.941406 435.351562 211.242188 C 434.992188 209.457031 434.726562 207.945312 434.742188 207.875 C 434.773438 207.765625 464.21875 201.933594 464.570312 201.984375 C 464.703125 201.992188 464.90625 202.785156 465.335938 204.933594 Z M 465.335938 204.933594 " />
        <path style=" stroke:none;fill-rule:nonzero; fill-opacity:1;"
            d="M 36.09375 212.914062 C 30.789062 213.800781 27.308594 217.808594 26.648438 223.804688 C 26.167969 228.101562 27.210938 231.679688 29.683594 234.164062 C 31.414062 235.875 34.078125 237.148438 36.835938 237.554688 C 37.328125 237.628906 42.019531 238.179688 47.25 238.769531 C 57.398438 239.921875 58.695312 240.007812 60.652344 239.671875 C 65.308594 238.851562 68.640625 235.515625 69.722656 230.585938 C 70.609375 226.519531 70.035156 222.632812 68.117188 219.8125 C 66.59375 217.578125 63.953125 215.9375 60.710938 215.203125 C 60.28125 215.109375 55.382812 214.507812 49.828125 213.875 C 39.210938 212.671875 38.011719 212.585938 36.09375 212.914062 Z M 49.375 220.304688 C 57.414062 221.203125 59.117188 221.429688 59.875 221.683594 C 62.476562 222.558594 63.832031 224.445312 63.832031 227.191406 C 63.832031 230.597656 61.9375 232.925781 58.757812 233.382812 C 58.277344 233.441406 57.652344 233.46875 57.351562 233.429688 C 57.054688 233.40625 52.710938 232.914062 47.695312 232.351562 C 42.679688 231.789062 38.167969 231.246094 37.675781 231.148438 C 35.839844 230.789062 34.109375 229.589844 33.429688 228.1875 C 33.25 227.828125 33.019531 227.109375 32.914062 226.578125 C 32.757812 225.773438 32.742188 225.460938 32.863281 224.578125 C 33.28125 221.40625 35 219.585938 37.9375 219.226562 C 38.886719 219.101562 38.085938 219.03125 49.375 220.304688 Z M 49.375 220.304688 " />
        <path style=" stroke:none;fill-rule:nonzero; fill-opacity:1;"
            d="M 453.179688 230.058594 C 433.011719 231.703125 432.367188 231.761719 432.390625 231.992188 C 432.398438 232.125 432.496094 233.5 432.617188 235.050781 C 432.726562 236.597656 432.859375 237.917969 432.90625 237.964844 C 432.988281 238.0625 475.257812 234.703125 475.402344 234.570312 C 475.460938 234.53125 475.390625 233.203125 475.257812 231.632812 C 475.125 230.046875 475.019531 228.65625 475.019531 228.535156 C 475.019531 228.367188 474.921875 228.328125 474.515625 228.34375 C 474.226562 228.355469 464.628906 229.125 453.179688 230.058594 Z M 453.179688 230.058594 " />
        <path style=" stroke:none;fill-rule:nonzero; fill-opacity:1;"
            d="M 433.578125 242.71875 C 433.539062 243.808594 433.46875 245.308594 433.429688 246.054688 L 433.375 247.398438 L 434.367188 247.695312 C 434.921875 247.867188 436.792969 248.40625 438.542969 248.90625 C 440.296875 249.414062 441.757812 249.867188 441.796875 249.90625 C 441.867188 250 441.496094 261.902344 441.414062 261.960938 C 441.386719 261.984375 439.515625 262.40625 437.25 262.898438 C 434.980469 263.390625 433.070312 263.820312 433 263.859375 C 432.882812 263.941406 432.605469 269.65625 432.6875 270.277344 C 432.726562 270.53125 433.648438 270.300781 454.203125 265.082031 C 466.019531 262.082031 475.714844 259.601562 475.75 259.550781 C 475.796875 259.5 475.847656 258.339844 475.871094 256.960938 L 475.921875 254.4375 L 456.78125 248.226562 C 446.257812 244.804688 436.742188 241.71875 435.640625 241.375 L 433.648438 240.726562 Z M 456.625 254.125 C 461.414062 255.519531 465.359375 256.65625 465.375 256.683594 C 465.398438 256.695312 461.507812 257.570312 456.746094 258.617188 C 451.984375 259.65625 447.953125 260.535156 447.796875 260.570312 L 447.507812 260.640625 L 447.589844 258.3125 C 447.625 257.03125 447.699219 255.003906 447.746094 253.789062 C 447.78125 252.59375 447.84375 251.609375 447.867188 251.609375 C 447.878906 251.609375 451.828125 252.75 456.625 254.125 Z M 456.625 254.125 " />
        <path style=" stroke:none;fill-rule:nonzero; fill-opacity:1;"
            d="M 55.226562 245.742188 C 55.277344 246.160156 55.335938 247.625 55.382812 248.992188 L 55.46875 251.488281 L 56.140625 251.488281 C 57.652344 251.488281 59.632812 252.0625 60.726562 252.796875 C 62.078125 253.734375 62.75 255.109375 62.75 256.9375 C 62.75 258.625 62.28125 259.742188 61.132812 260.835938 C 60.367188 261.554688 59.296875 262.09375 58.121094 262.34375 C 56.90625 262.609375 38.058594 263.402344 36.894531 263.234375 C 35.214844 263.007812 33.992188 262.429688 33.078125 261.460938 C 32.035156 260.34375 31.601562 259.058594 31.699219 257.355469 C 31.84375 254.65625 33.847656 252.90625 37.496094 252.289062 L 38.453125 252.125 L 38.445312 251.476562 C 38.445312 251.117188 38.394531 249.675781 38.335938 248.273438 C 38.25 245.90625 38.226562 245.726562 38.023438 245.726562 C 37.902344 245.726562 37.207031 245.8125 36.460938 245.921875 C 30.632812 246.726562 27.023438 249.445312 25.796875 253.96875 C 25.421875 255.304688 25.328125 258.640625 25.605469 260.246094 C 26.046875 262.8125 26.960938 264.640625 28.617188 266.320312 C 30.773438 268.5 33.355469 269.53125 37.015625 269.679688 C 38.851562 269.761719 55.742188 269.101562 58.011719 268.875 C 62.929688 268.367188 66.542969 265.957031 68.148438 262.082031 C 68.835938 260.4375 69.027344 259.203125 68.953125 256.648438 C 68.90625 254.75 68.859375 254.25 68.59375 253.242188 C 67.226562 248.09375 63.351562 245.429688 56.632812 245.054688 L 55.15625 244.972656 Z M 55.226562 245.742188 " />
        <path style=" stroke:none;fill-rule:nonzero; fill-opacity:1;"
            d="M 100.945312 369.46875 C 100.679688 369.816406 100.222656 370.367188 99.960938 370.71875 L 99.46875 371.328125 L 102.46875 374.601562 C 105.3125 377.699219 105.453125 377.890625 105.261719 378.085938 C 102.804688 380.386719 99.15625 383.625 98.386719 384.179688 L 97.859375 384.5625 L 97.640625 383.6875 C 97.429688 382.820312 96.671875 381.109375 96.242188 380.496094 L 96.011719 380.171875 L 94.25 380.257812 C 93.273438 380.289062 92.445312 380.375 92.390625 380.4375 C 92.257812 380.578125 88.644531 397.734375 88.703125 397.917969 C 88.75 398.039062 92.710938 398.671875 92.796875 398.5625 C 92.820312 398.554688 93.15625 395.914062 93.539062 392.710938 L 94.25 386.902344 L 98.796875 391.867188 C 101.304688 394.605469 103.453125 396.957031 103.570312 397.101562 C 103.796875 397.351562 103.789062 397.367188 99.765625 401.039062 C 97.558594 403.0625 95.75 404.757812 95.75 404.804688 C 95.75 404.875 97.320312 406.664062 98.027344 407.398438 C 98.230469 407.609375 98.53125 407.347656 107.554688 399.078125 C 112.679688 394.390625 116.914062 390.550781 116.960938 390.550781 C 117.09375 390.550781 120.511719 394.257812 120.679688 394.582031 C 120.75 394.726562 124.351562 397.582031 128.683594 400.941406 C 133.410156 404.601562 136.53125 407.09375 136.492188 407.191406 C 136.460938 407.273438 135.042969 409.132812 133.339844 411.320312 L 130.257812 415.304688 L 129.40625 415.699219 C 127.699219 416.476562 125.734375 416.945312 124.136719 416.945312 C 121.390625 416.9375 118.761719 415.566406 117.8125 413.648438 C 117.476562 412.953125 117.441406 412.796875 117.476562 411.945312 C 117.515625 411.140625 117.597656 410.851562 117.980469 410.070312 C 118.59375 408.835938 119.539062 407.828125 120.5625 407.324219 C 121.265625 406.964844 121.472656 406.929688 122.382812 406.929688 C 124.136719 406.929688 124.9375 407.3125 127.59375 409.375 C 128.296875 409.929688 128.921875 410.335938 128.984375 410.273438 C 129.140625 410.109375 130.421875 407.734375 130.421875 407.625 C 130.414062 407.453125 126.992188 404.898438 125.996094 404.335938 C 125.453125 404.023438 124.554688 403.617188 123.96875 403.4375 C 123.046875 403.125 122.757812 403.085938 121.421875 403.085938 C 120.070312 403.101562 119.851562 403.125 119.144531 403.421875 C 116.925781 404.347656 114.71875 406.953125 114.164062 409.28125 C 113.9375 410.25 113.9375 411.953125 114.164062 413.046875 C 114.382812 414.125 115.367188 416.082031 116.132812 416.96875 C 118.4375 419.65625 121.757812 421.109375 125.023438 420.84375 C 125.996094 420.773438 126.03125 420.773438 125.851562 420.992188 C 125.289062 421.640625 121.054688 427.171875 121.085938 427.195312 C 123.152344 428.851562 124.003906 429.449219 124.136719 429.351562 C 124.21875 429.292969 127.726562 424.820312 131.921875 419.40625 C 136.125 413.992188 139.589844 409.554688 139.640625 409.53125 C 139.6875 409.519531 140.671875 410.242188 141.820312 411.125 C 142.976562 412.015625 143.933594 412.75 143.96875 412.75 C 144.113281 412.75 145.554688 410.109375 145.480469 410 C 145.445312 409.929688 144.738281 409.351562 143.921875 408.714844 C 143.09375 408.078125 142.421875 407.539062 142.421875 407.527344 C 142.421875 407.503906 142.566406 407.070312 142.734375 406.554688 C 143.695312 403.6875 145.226562 401.757812 146.992188 401.167969 C 147.4375 401.011719 147.84375 400.976562 148.445312 401.011719 C 149.71875 401.109375 150.808594 401.71875 152.308594 403.160156 L 153.507812 404.3125 L 154.625 403.519531 C 155.234375 403.085938 155.742188 402.667969 155.742188 402.585938 C 155.742188 402.308594 154.515625 400.628906 153.652344 399.75 C 152.695312 398.757812 151.265625 397.773438 150.375 397.449219 C 149.570312 397.171875 148.121094 397.089844 147.328125 397.269531 C 145.648438 397.652344 143.789062 399.078125 142.890625 400.6875 L 142.484375 401.40625 L 142.398438 398.769531 C 142.3125 395.984375 142.171875 394.882812 141.664062 393.523438 C 140.945312 391.53125 139.601562 390.023438 137 388.28125 C 136.085938 387.679688 135.34375 387.203125 135.34375 387.238281 C 135.34375 387.261719 135.054688 387.984375 134.695312 388.84375 L 134.046875 390.417969 L 135.019531 391.054688 C 137.648438 392.757812 138.976562 394.890625 139.289062 397.953125 C 139.460938 399.597656 139.601562 405.1875 139.46875 405.1875 C 139.289062 405.1875 122.683594 392.230469 122.710938 392.121094 C 122.734375 392.015625 101.6875 368.929688 101.519531 368.867188 C 101.484375 368.859375 101.21875 369.121094 100.945312 369.46875 Z M 111.515625 384.476562 C 113.074219 386.179688 114.34375 387.625 114.320312 387.671875 C 114.25 387.835938 106.367188 394.992188 106.28125 394.964844 C 106.234375 394.941406 104.867188 393.464844 103.234375 391.6875 C 101.601562 389.902344 100.148438 388.304688 99.984375 388.140625 L 99.695312 387.828125 L 100.390625 387.40625 C 101.230469 386.878906 102.117188 386.125 105.46875 383.0625 L 108.03125 380.710938 L 108.359375 381.035156 C 108.539062 381.226562 109.953125 382.765625 111.515625 384.476562 Z M 111.515625 384.476562 " />
        <path style=" stroke:none;fill-rule:nonzero; fill-opacity:1;"
            d="M 374.472656 400.039062 C 368.890625 404.601562 364.179688 408.476562 363.984375 408.632812 L 363.625 408.929688 L 364.523438 409.757812 C 365.007812 410.214844 365.554688 410.695312 365.726562 410.828125 L 366.046875 411.070312 L 372.867188 405.488281 C 376.609375 402.414062 379.714844 399.90625 379.765625 399.90625 C 379.871094 399.90625 384.164062 405.117188 384.265625 405.355469 C 384.296875 405.4375 382.234375 407.21875 379.199219 409.699219 C 376.378906 412.003906 374.003906 413.9375 373.90625 414.007812 C 373.8125 414.078125 373.691406 414.738281 373.570312 415.855469 C 373.476562 416.804688 373.390625 417.617188 373.390625 417.679688 C 373.390625 417.820312 374.964844 418.722656 375.828125 419.070312 C 376.824219 419.476562 378.15625 419.789062 379.585938 419.945312 C 381.421875 420.164062 381.273438 420.246094 381.851562 418.507812 L 382.34375 417.019531 L 380.75 415.640625 C 379.859375 414.882812 379.164062 414.222656 379.175781 414.175781 C 379.199219 414.117188 380.804688 412.773438 382.75 411.175781 C 384.695312 409.59375 386.351562 408.234375 386.421875 408.175781 C 386.507812 408.117188 388.140625 410.023438 391.210938 413.765625 C 394.015625 417.210938 395.914062 419.429688 396 419.382812 C 396.070312 419.335938 396.726562 418.820312 397.449219 418.21875 C 398.179688 417.632812 398.78125 417.125 398.804688 417.117188 C 398.84375 417.089844 383.664062 398.480469 382.90625 397.617188 C 382.75 397.4375 382.945312 397.246094 384.8125 395.710938 C 385.953125 394.773438 386.902344 393.96875 386.925781 393.921875 C 386.953125 393.851562 384.753906 391.75 384.648438 391.75 C 384.625 391.75 380.050781 395.480469 374.472656 400.039062 Z M 374.472656 400.039062 " />
        <path style=" stroke:none;fill-rule:nonzero; fill-opacity:1;"
            d="M 395.46875 392.515625 C 394.367188 392.804688 394.039062 393.476562 394.1875 395.226562 C 394.28125 396.34375 394.523438 396.875 395.039062 397.089844 C 395.601562 397.328125 397.292969 397.316406 398.085938 397.089844 C 398.949219 396.828125 399.117188 396.488281 399.105469 394.992188 C 399.09375 393.597656 398.851562 392.914062 398.300781 392.625 C 397.808594 392.359375 396.308594 392.3125 395.46875 392.515625 Z M 395.46875 392.515625 " />
        <path style=" stroke:none;fill-rule:nonzero; fill-opacity:1;"
            d="M 403.664062 400.390625 C 403.125 400.507812 402.679688 400.832031 402.546875 401.179688 C 402.382812 401.601562 402.414062 403.726562 402.585938 404.21875 C 402.847656 404.960938 403.234375 405.128906 404.683594 405.128906 C 405.726562 405.128906 406.0625 405.078125 406.519531 404.863281 C 407.25 404.539062 407.398438 404.121094 407.324219 402.621094 C 407.242188 401.25 407.023438 400.675781 406.460938 400.449219 C 406.003906 400.257812 404.347656 400.21875 403.664062 400.390625 Z M 403.664062 400.390625 " />
        <path style=" stroke:none;fill-rule:nonzero; fill-opacity:1;"
            d="M 356.546875 413.238281 C 353.523438 414.953125 351.027344 416.335938 350.992188 416.296875 C 350.953125 416.265625 351.039062 415.878906 351.171875 415.421875 C 351.3125 414.976562 351.410156 414.59375 351.386719 414.582031 C 351.3125 414.511719 347.8125 413.960938 346.453125 413.804688 C 344.199219 413.550781 336.652344 413.601562 334.15625 413.863281 C 328.851562 414.453125 324.140625 415.542969 321.234375 416.886719 C 319.050781 417.894531 317.359375 419.371094 316.570312 420.976562 C 316.132812 421.84375 316.101562 422 316.0625 423.140625 C 316.027344 424.242188 316.050781 424.457031 316.375 425.382812 C 316.855469 426.796875 317.863281 428.25 319.375 429.75 L 320.625 430.984375 L 320.09375 431.203125 C 319.820312 431.320312 318.679688 431.765625 317.578125 432.195312 C 316.46875 432.617188 315.5625 433 315.5625 433.0625 C 315.5625 433.132812 316.890625 435.507812 317.070312 435.773438 C 317.09375 435.796875 318.148438 435.398438 319.410156 434.898438 C 320.683594 434.40625 321.738281 434.007812 321.738281 434.019531 C 321.75 434.03125 323.828125 439.335938 326.359375 445.804688 C 328.890625 452.269531 330.964844 457.574219 330.976562 457.597656 C 331.023438 457.65625 334.515625 456.265625 334.515625 456.195312 C 334.515625 456.15625 332.441406 450.828125 329.910156 444.363281 L 325.289062 432.605469 L 327.859375 431.597656 L 330.425781 430.589844 L 330.066406 429.976562 C 329.875 429.640625 329.515625 429.007812 329.273438 428.5625 C 329.03125 428.117188 328.804688 427.78125 328.769531 427.792969 C 328.734375 427.816406 327.570312 428.285156 326.1875 428.824219 L 323.679688 429.796875 L 322.976562 429.101562 C 321.992188 428.128906 321.234375 427.121094 320.730469 426.066406 C 320.335938 425.238281 320.296875 425.082031 320.296875 424.085938 C 320.296875 422.828125 320.503906 422.335938 321.414062 421.359375 C 322.566406 420.125 324.535156 419.203125 327.726562 418.386719 C 332.117188 417.273438 337.203125 416.707031 342.855469 416.707031 C 345.53125 416.707031 349.429688 416.945312 349.601562 417.101562 C 349.625 417.140625 345.554688 419.46875 340.554688 422.285156 C 335.546875 425.105469 331.382812 427.480469 331.300781 427.5625 C 331.179688 427.671875 331.335938 427.949219 332.082031 428.921875 C 332.597656 429.59375 333.039062 430.132812 333.078125 430.144531 C 333.113281 430.144531 334.867188 429.171875 336.976562 427.984375 C 340.011719 426.269531 340.828125 425.851562 340.9375 425.96875 C 341.019531 426.054688 341.875 427.539062 342.84375 429.28125 C 344.546875 432.292969 345.4375 434.070312 345.4375 434.464844 C 345.4375 434.609375 345.171875 434.679688 344.273438 434.789062 C 343.046875 434.945312 341.203125 435.414062 340.972656 435.640625 C 340.898438 435.710938 340.71875 436.492188 340.5625 437.367188 C 340.359375 438.617188 340.324219 438.988281 340.445312 439.085938 C 340.53125 439.144531 340.828125 439.398438 341.128906 439.632812 C 342.628906 440.871094 345.125 442.242188 346.96875 442.863281 C 348.960938 443.523438 350.332031 443.738281 352.515625 443.75 C 355.40625 443.75 357.335938 443.320312 359.632812 442.15625 C 362.425781 440.726562 364.492188 438.75 365.726562 436.273438 L 366.21875 435.28125 L 367.320312 437.234375 C 367.933594 438.304688 368.484375 439.203125 368.546875 439.226562 C 368.652344 439.265625 371.710938 437.570312 371.75 437.453125 C 371.757812 437.414062 368.976562 432.421875 365.546875 426.367188 C 360.9375 418.21875 359.367188 415.335938 359.484375 415.265625 C 359.570312 415.207031 360.625 414.609375 361.835938 413.921875 C 363.171875 413.179688 364.007812 412.625 363.972656 412.542969 C 363.890625 412.3125 362.210938 410.109375 362.125 410.117188 C 362.089844 410.117188 359.582031 411.523438 356.546875 413.238281 Z M 357.171875 419.273438 C 357.769531 420.351562 358.273438 421.265625 358.273438 421.289062 C 358.273438 421.328125 357.878906 421.386719 357.398438 421.421875 C 355.585938 421.578125 353.546875 422.46875 352.226562 423.6875 C 350.820312 424.972656 350.117188 426.867188 350.460938 428.464844 C 350.820312 430.15625 351.984375 431.644531 353.5 432.367188 C 354.976562 433.070312 356.34375 433.265625 357.914062 433.011719 C 359.1875 432.820312 359.59375 432.675781 359.59375 432.449219 C 359.59375 432.28125 359.113281 429.914062 359.054688 429.820312 C 359.054688 429.808594 358.777344 429.867188 358.453125 429.964844 C 357.695312 430.195312 356.460938 430.195312 355.898438 429.953125 C 355.070312 429.617188 354.335938 428.703125 354.132812 427.78125 C 354.015625 427.179688 354.351562 426.1875 354.914062 425.546875 C 355.992188 424.328125 357.710938 423.964844 359.148438 424.6875 C 360.179688 425.203125 361.261719 426.390625 361.921875 427.769531 C 362.582031 429.125 362.835938 430.132812 362.835938 431.414062 C 362.835938 435.398438 359.738281 439.0625 355.214844 440.414062 C 354.375 440.65625 353.789062 440.742188 352.550781 440.789062 C 350.65625 440.871094 349.324219 440.617188 347.789062 439.886719 L 346.828125 439.429688 L 347.4375 438.988281 C 348.289062 438.363281 348.890625 437.667969 349.242188 436.890625 C 349.515625 436.300781 349.539062 436.132812 349.476562 435.136719 C 349.371094 433.3125 348.976562 432.390625 346.023438 427.171875 C 345.039062 425.441406 344.234375 423.976562 344.234375 423.929688 C 344.25 423.835938 355.753906 417.320312 355.933594 417.304688 C 356.007812 417.304688 356.558594 418.195312 357.171875 419.273438 Z M 357.171875 419.273438 " />
        <path style=" stroke:none;fill-rule:nonzero; fill-opacity:1;"
            d="M 163.839844 421.554688 C 161.488281 422.117188 159.890625 424.484375 160.09375 427.085938 C 160.167969 427.984375 160.578125 429.21875 161.054688 430 L 161.367188 430.480469 L 162.78125 430.0625 C 163.5625 429.832031 164.210938 429.628906 164.222656 429.617188 C 164.234375 429.617188 164.117188 429.21875 163.945312 428.765625 C 163.789062 428.296875 163.65625 427.734375 163.65625 427.507812 C 163.65625 426.554688 164.125 425.621094 164.847656 425.140625 C 165.699219 424.566406 167.34375 424.960938 168.0625 425.910156 C 168.484375 426.460938 168.578125 427.53125 168.289062 428.523438 C 168.085938 429.1875 164.929688 436.480469 164.75 436.660156 C 164.703125 436.710938 163.839844 436.660156 162.832031 436.554688 C 161.824219 436.445312 160.96875 436.382812 160.945312 436.421875 C 160.914062 436.457031 160.828125 436.984375 160.765625 437.59375 C 160.625 438.867188 160.707031 440.667969 160.96875 442.058594 C 161.152344 442.996094 161.691406 444.757812 161.859375 444.9375 C 161.976562 445.070312 165.074219 444.773438 165.195312 444.617188 C 165.242188 444.542969 165.601562 443.765625 166 442.886719 C 166.527344 441.664062 166.742188 441.289062 166.886719 441.339844 C 167.34375 441.460938 175.40625 445.058594 175.367188 445.132812 C 175.007812 445.71875 170.871094 455.402344 170.941406 455.476562 C 170.992188 455.523438 171.769531 455.894531 172.65625 456.277344 C 173.738281 456.757812 174.300781 456.949219 174.351562 456.851562 C 174.398438 456.78125 176.65625 451.671875 179.375 445.503906 C 182.101562 439.335938 184.382812 434.164062 184.464844 434.03125 C 184.59375 433.78125 184.644531 433.792969 186.996094 434.835938 C 188.316406 435.421875 189.445312 435.882812 189.515625 435.867188 C 189.625 435.832031 190.414062 433.347656 190.414062 433.023438 C 190.414062 432.90625 188.339844 431.933594 183.921875 429.988281 C 180.351562 428.417969 177.398438 427.15625 177.359375 427.195312 C 177.289062 427.265625 176.484375 430.179688 176.53125 430.21875 C 176.546875 430.226562 177.5625 430.6875 178.800781 431.226562 L 181.046875 432.21875 L 180.890625 432.59375 C 180.539062 433.398438 176.820312 441.84375 176.785156 441.890625 C 176.75 441.929688 168.253906 438.234375 168.125 438.125 C 168.109375 438.109375 168.828125 436.445312 169.71875 434.414062 C 171.484375 430.398438 171.796875 429.507812 171.902344 428.023438 C 172.09375 425.390625 170.976562 423.546875 168.421875 422.285156 C 166.753906 421.460938 165.230469 421.21875 163.839844 421.554688 Z M 163.839844 421.554688 " />
        <path style=" stroke:none;fill-rule:nonzero; fill-opacity:1;"
            d="M 191.976562 433.601562 C 191.976562 433.648438 191.890625 434.355469 191.796875 435.171875 C 191.6875 435.988281 191.625 436.671875 191.640625 436.683594 C 191.664062 436.695312 196.042969 437.789062 201.371094 439.109375 C 206.695312 440.429688 211.101562 441.542969 211.136719 441.59375 C 211.1875 441.640625 210.65625 443.921875 209.984375 446.679688 L 208.734375 451.679688 L 207.765625 452.6875 C 206.507812 453.984375 205.484375 454.753906 204.15625 455.414062 C 202.75 456.097656 201.777344 456.335938 200.433594 456.351562 C 198.15625 456.351562 196.378906 455.402344 195.671875 453.820312 C 194.976562 452.257812 195.492188 449.523438 196.726562 448.15625 C 197.589844 447.183594 198.851562 446.691406 200.445312 446.691406 C 201.179688 446.691406 201.886719 446.8125 203.421875 447.195312 C 204.515625 447.46875 205.449219 447.664062 205.484375 447.625 C 205.617188 447.507812 205.8125 444.648438 205.703125 444.554688 C 205.5 444.363281 201.523438 443.460938 200.335938 443.332031 C 197.773438 443.054688 195.40625 443.703125 193.953125 445.09375 C 192.453125 446.546875 191.496094 448.992188 191.496094 451.40625 C 191.496094 454.46875 193.390625 457.296875 196.476562 458.835938 C 198.289062 459.734375 199.222656 459.9375 201.394531 459.9375 C 203 459.9375 203.304688 459.898438 204.273438 459.613281 C 204.875 459.433594 205.703125 459.097656 206.121094 458.882812 C 206.554688 458.652344 206.925781 458.484375 206.949219 458.523438 C 206.984375 458.546875 206.589844 460.226562 206.085938 462.242188 C 205.582031 464.242188 205.171875 465.972656 205.171875 466.070312 C 205.171875 466.257812 208.640625 467.171875 208.773438 467.015625 C 208.820312 466.96875 210.226562 461.4375 211.890625 454.742188 C 213.5625 448.046875 214.941406 442.550781 214.953125 442.527344 C 214.964844 442.503906 216.164062 442.789062 217.601562 443.148438 C 219.046875 443.511719 220.234375 443.796875 220.242188 443.789062 C 220.28125 443.75 220.652344 440.667969 220.617188 440.644531 C 220.578125 440.609375 192.109375 433.503906 192.035156 433.503906 C 192 433.503906 191.976562 433.554688 191.976562 433.601562 Z M 191.976562 433.601562 " />
        <path style=" stroke:none;fill-rule:nonzero; fill-opacity:1;"
            d="M 222.953125 442.40625 L 222.992188 444.003906 L 229.710938 444.804688 C 233.40625 445.265625 236.5 445.648438 236.585938 445.683594 C 236.65625 445.707031 236.730469 445.851562 236.730469 445.984375 C 236.730469 446.222656 236.765625 446.222656 246.328125 446.222656 L 255.929688 446.222656 L 255.929688 452.101562 L 251.585938 452.101562 C 249.183594 452.101562 246.75 452.164062 246.148438 452.234375 C 244.335938 452.449219 242.679688 453.121094 241.890625 453.960938 C 241.578125 454.296875 241.40625 454.261719 241.40625 453.828125 C 241.40625 453.671875 241.375 453.539062 241.324219 453.539062 C 241.265625 453.539062 237.820312 453.132812 233.648438 452.632812 L 226.074219 451.71875 L 224.730469 452.773438 C 223.988281 453.351562 223.363281 453.890625 223.328125 453.960938 C 223.242188 454.1875 223.75 456.023438 224.140625 456.960938 C 224.5625 457.921875 225.796875 459.84375 226.554688 460.679688 L 227.070312 461.242188 L 228.453125 460.621094 C 229.207031 460.285156 229.867188 459.960938 229.914062 459.925781 C 229.953125 459.875 229.9375 458.90625 229.867188 457.765625 C 229.796875 456.625 229.773438 455.664062 229.804688 455.628906 C 229.855469 455.582031 239.875 456.746094 240.164062 456.84375 C 240.257812 456.867188 240.269531 457.046875 240.195312 457.40625 C 240.039062 458.21875 240.078125 459.867188 240.269531 461.101562 C 240.546875 462.78125 241.335938 465 242.429688 467.160156 C 243.34375 468.972656 245.296875 472.257812 245.453125 472.257812 C 245.523438 472.257812 247.890625 470.960938 247.984375 470.878906 C 248.007812 470.855469 247.457031 469.679688 246.757812 468.273438 C 244.898438 464.507812 244.15625 462.109375 244.121094 459.78125 C 244.109375 458.582031 244.132812 458.472656 244.503906 457.71875 C 244.972656 456.769531 245.609375 456.179688 246.554688 455.796875 C 247.203125 455.53125 247.359375 455.53125 251.546875 455.523438 L 255.867188 455.523438 L 255.902344 463.585938 L 255.929688 471.660156 L 258.976562 471.660156 L 257.882812 472.1875 C 257.28125 472.476562 256.757812 472.773438 256.707031 472.859375 C 256.625 473.003906 258.050781 475.5 258.21875 475.5 C 258.28125 475.5 258.640625 475.34375 259.023438 475.148438 C 260.570312 474.371094 262.140625 474.191406 263.125 474.683594 C 264.722656 475.484375 264.902344 478.140625 263.460938 479.554688 C 262.226562 480.753906 259.632812 480.984375 257.019531 480.109375 C 254.929688 479.410156 253.179688 478.296875 251.65625 476.675781 L 250.804688 475.773438 L 249.757812 476.578125 L 248.71875 477.394531 L 249.445312 478.304688 C 251.199219 480.476562 253.503906 482.097656 256.167969 483.023438 C 257.714844 483.574219 258.675781 483.71875 260.484375 483.707031 C 263.148438 483.671875 264.9375 483.046875 266.304688 481.679688 C 267.515625 480.453125 268.046875 479.15625 268.046875 477.359375 C 268.046875 474.914062 266.773438 472.65625 264.902344 471.78125 C 263.640625 471.191406 262.34375 471.085938 260.210938 471.371094 L 259.648438 471.453125 L 259.671875 458.867188 L 259.707031 446.28125 L 262.445312 446.246094 C 264.9375 446.222656 265.164062 446.199219 265.164062 446.007812 C 265.164062 445.898438 265.082031 445.265625 264.984375 444.601562 C 264.890625 443.945312 264.804688 443.332031 264.804688 443.257812 C 264.804688 443.140625 262.226562 443.101562 252.90625 443.078125 L 240.988281 443.042969 L 232.074219 441.929688 C 227.164062 441.328125 223.101562 440.824219 223.039062 440.824219 C 222.96875 440.824219 222.945312 441.46875 222.953125 442.40625 Z M 222.953125 442.40625 " />
    </g>
</svg>